HIERARCHY
ROOT hips
{
  OFFSET 0 10.680822821525009 1.3929502295107734
  CHANNELS 6 Xposition Yposition Zposition Yrotation Xrotation Zrotation
  JOINT spine
  {
    OFFSET -7.042017322922631e-31 0.6058489940359625 0
    CHANNELS 3 Yrotation Xrotation Zrotation
    JOINT chest
    {
      OFFSET 0 1.2699794144455032 0
      CHANNELS 3 Yrotation Xrotation Zrotation
      JOINT upperChest
      {
        OFFSET 0 1.217799211677689 0
        CHANNELS 3 Yrotation Xrotation Zrotation
        JOINT neck
        {
          OFFSET 0 1.5248826104153006 0
          CHANNELS 3 Yrotation Xrotation Zrotation
          JOINT head
          {
            OFFSET 0 0.8197772727844447 0
            CHANNELS 3 Yrotation Xrotation Zrotation
            JOINT leftEye
            {
              OFFSET 0.2793952361220866 0.6769952096623495 0.1830357412467788
              CHANNELS 3 Yrotation Xrotation Zrotation
              End Site
              {
                OFFSET 0.2793952361220866 0.6769952096623495 0.1830357412467788
              }
            }
            JOINT rightEye
            {
              OFFSET -0.27939522230689573 0.676995205357064 0.18303631459760622
              CHANNELS 3 Yrotation Xrotation Zrotation
              End Site
              {
                OFFSET -0.27939522230689573 0.676995205357064 0.18303631459760622
              }
            }
          }
        }
        JOINT leftShoulder
        {
          OFFSET 0.41486978509200423 1.1670505408695453 0
          CHANNELS 3 Yrotation Xrotation Zrotation
          JOINT leftUpperArm
          {
            OFFSET 0.9737926108153417 0 0
            CHANNELS 3 Yrotation Xrotation Zrotation
            JOINT leftLowerArm
            {
              OFFSET 2.5269332222665284 0 0
              CHANNELS 3 Yrotation Xrotation Zrotation
              JOINT leftHand
              {
                OFFSET 2.4263782738425914 0 0
                CHANNELS 3 Yrotation Xrotation Zrotation
                JOINT leftIndexProximal
                {
                  OFFSET 0.724320348022514 0.08170607082582437 0.20360061616140124
                  CHANNELS 3 Yrotation Xrotation Zrotation
                  JOINT leftIndexIntermediate
                  {
                    OFFSET 0.36548960630744587 -0.010566596513783999 -0.01414783573280308
                    CHANNELS 3 Yrotation Xrotation Zrotation
                    JOINT leftIndexDistal
                    {
                      OFFSET 0.22502819650693362 -0.007863819831430696 -0.007567681939621526
                      CHANNELS 3 Yrotation Xrotation Zrotation
                      End Site
                      {
                        OFFSET 0.22502819650693362 -0.007863819831430696 -0.007567681939621526
                      }
                    }
                  }
                }
                JOINT leftLittleProximal
                {
                  OFFSET 0.6720322998298205 0.08170601055037707 -0.3230036039466837
                  CHANNELS 3 Yrotation Xrotation Zrotation
                  JOINT leftLittleIntermediate
                  {
                    OFFSET 0.34583592281688713 5.476543019078406e-8 1.3869203337180114e-7
                    CHANNELS 3 Yrotation Xrotation Zrotation
                    JOINT leftLittleDistal
                    {
                      OFFSET 0.19925728062053938 0.003098047439490381 0.0038303983709246925
                      CHANNELS 3 Yrotation Xrotation Zrotation
                      End Site
                      {
                        OFFSET 0.19925728062053938 0.003098047439490381 0.0038303983709246925
                      }
                    }
                  }
                }
                JOINT leftMiddleProximal
                {
                  OFFSET 0.7300436596551069 0.0817073395107144 0.022661722987926763
                  CHANNELS 3 Yrotation Xrotation Zrotation
                  JOINT leftMiddleIntermediate
                  {
                    OFFSET 0.40758254347686607 -0.0000012383587111308714 2.408460318820138e-7
                    CHANNELS 3 Yrotation Xrotation Zrotation
                    JOINT leftMiddleDistal
                    {
                      OFFSET 0.2514490105498507 0.0000013869132886590307 9.738618134136345e-8
                      CHANNELS 3 Yrotation Xrotation Zrotation
                      End Site
                      {
                        OFFSET 0.2514490105498507 0.0000013869132886590307 9.738618134136345e-8
                      }
                    }
                  }
                }
                JOINT leftRingProximal
                {
                  OFFSET 0.7217261161191838 0.08170601902187746 -0.15043395722184966
                  CHANNELS 3 Yrotation Xrotation Zrotation
                  JOINT leftRingIntermediate
                  {
                    OFFSET 0.37808807487521556 0.0000013754022405443322 2.2046919317952884e-7
                    CHANNELS 3 Yrotation Xrotation Zrotation
                    JOINT leftRingDistal
                    {
                      OFFSET 0.21812105442344254 -0.002713483731960231 -0.004991354517454624
                      CHANNELS 3 Yrotation Xrotation Zrotation
                      End Site
                      {
                        OFFSET 0.21812105442344254 -0.002713483731960231 -0.004991354517454624
                      }
                    }
                  }
                }
                JOINT leftThumbProximal
                {
                  OFFSET 0.10793587079521427 -0.1652791240518252 -0.07775251827190094
                  CHANNELS 3 Yrotation Xrotation Zrotation
                  JOINT leftThumbIntermediate
                  {
                    OFFSET 0.40355819082296684 -0.017484006740276614 0.3177776014416309
                    CHANNELS 3 Yrotation Xrotation Zrotation
                    JOINT leftThumbDistal
                    {
                      OFFSET 0.2318764658022603 -0.018510186824293617 0.21396001800186287
                      CHANNELS 3 Yrotation Xrotation Zrotation
                      End Site
                      {
                        OFFSET 0.2318764658022603 -0.018510186824293617 0.21396001800186287
                      }
                    }
                  }
                }
              }
            }
          }
        }
        JOINT rightShoulder
        {
          OFFSET -0.4148697850920044 1.1670505408695453 0
          CHANNELS 3 Yrotation Xrotation Zrotation
          JOINT rightUpperArm
          {
            OFFSET -0.9737926108153414 0 0
            CHANNELS 3 Yrotation Xrotation Zrotation
            JOINT rightLowerArm
            {
              OFFSET -2.5269332222665293 0 0
              CHANNELS 3 Yrotation Xrotation Zrotation
              JOINT rightHand
              {
                OFFSET -2.42637827384259 0 0
                CHANNELS 3 Yrotation Xrotation Zrotation
                JOINT rightIndexProximal
                {
                  OFFSET -0.724320348022514 0.08170607082582437 0.20360061616140124
                  CHANNELS 3 Yrotation Xrotation Zrotation
                  JOINT rightIndexIntermediate
                  {
                    OFFSET -0.36548960630744587 -0.010566596513783999 -0.01414783573280308
                    CHANNELS 3 Yrotation Xrotation Zrotation
                    JOINT rightIndexDistal
                    {
                      OFFSET -0.22502819650693362 -0.007863819831430696 -0.007567681939621526
                      CHANNELS 3 Yrotation Xrotation Zrotation
                      End Site
                      {
                        OFFSET -0.22502819650693362 -0.007863819831430696 -0.007567681939621526
                      }
                    }
                  }
                }
                JOINT rightLittleProximal
                {
                  OFFSET -0.6720322998298205 0.08170601055037707 -0.3230036039466837
                  CHANNELS 3 Yrotation Xrotation Zrotation
                  JOINT rightLittleIntermediate
                  {
                    OFFSET -0.34583592281688713 5.476543019078406e-8 1.3869203337180114e-7
                    CHANNELS 3 Yrotation Xrotation Zrotation
                    JOINT rightLittleDistal
                    {
                      OFFSET -0.19925728062053938 0.003098047439490381 0.0038303983709246925
                      CHANNELS 3 Yrotation Xrotation Zrotation
                      End Site
                      {
                        OFFSET -0.19925728062053938 0.003098047439490381 0.0038303983709246925
                      }
                    }
                  }
                }
                JOINT rightMiddleProximal
                {
                  OFFSET -0.7300436596551069 0.0817073395107144 0.022661722987926763
                  CHANNELS 3 Yrotation Xrotation Zrotation
                  JOINT rightMiddleIntermediate
                  {
                    OFFSET -0.40758254347686607 -0.0000012383587111308714 2.408460318820138e-7
                    CHANNELS 3 Yrotation Xrotation Zrotation
                    JOINT rightMiddleDistal
                    {
                      OFFSET -0.2514490105498507 0.0000013869132886590307 9.738618134136345e-8
                      CHANNELS 3 Yrotation Xrotation Zrotation
                      End Site
                      {
                        OFFSET -0.2514490105498507 0.0000013869132886590307 9.738618134136345e-8
                      }
                    }
                  }
                }
                JOINT rightRingProximal
                {
                  OFFSET -0.7217261161191838 0.08170601902187746 -0.15043395722184966
                  CHANNELS 3 Yrotation Xrotation Zrotation
                  JOINT rightRingIntermediate
                  {
                    OFFSET -0.37808807487521556 0.0000013754022405443322 2.2046919317952884e-7
                    CHANNELS 3 Yrotation Xrotation Zrotation
                    JOINT rightRingDistal
                    {
                      OFFSET -0.21812105442344254 -0.002713483731960231 -0.004991354517454624
                      CHANNELS 3 Yrotation Xrotation Zrotation
                      End Site
                      {
                        OFFSET -0.21812105442344254 -0.002713483731960231 -0.004991354517454624
                      }
                    }
                  }
                }
                JOINT rightThumbProximal
                {
                  OFFSET -0.10793587079521427 -0.1652791240518252 -0.07775251827190094
                  CHANNELS 3 Yrotation Xrotation Zrotation
                  JOINT rightThumbIntermediate
                  {
                    OFFSET -0.40355819082296684 -0.017484006740276614 0.3177776014416309
                    CHANNELS 3 Yrotation Xrotation Zrotation
                    JOINT rightThumbDistal
                    {
                      OFFSET -0.2318764658022603 -0.018510186824293617 0.21396001800186287
                      CHANNELS 3 Yrotation Xrotation Zrotation
                      End Site
                      {
                        OFFSET -0.2318764658022603 -0.018510186824293617 0.21396001800186287
                      }
                    }
                  }
                }
              }
            }
          }
        }
      }
    }
  }
  JOINT leftUpperLeg
  {
    OFFSET 0.8486251390888677 -0.4421577294694363 0
    CHANNELS 3 Yrotation Xrotation Zrotation
    JOINT leftLowerLeg
    {
      OFFSET 0 -4.10147812638609 0
      CHANNELS 3 Yrotation Xrotation Zrotation
      JOINT leftFoot
      {
        OFFSET -0.0002543926476658853 -4.77292286812444 0.007402811231737388
        CHANNELS 3 Yrotation Xrotation Zrotation
        JOINT leftToes
        {
          OFFSET 0 -0.7027875951174846 1.2062924140498823
          CHANNELS 3 Yrotation Xrotation Zrotation
          End Site
          {
            OFFSET 0 -0.7027875951174846 1.2062924140498823
          }
        }
      }
    }
  }
  JOINT rightUpperLeg
  {
    OFFSET -0.8486251390888677 -0.4421577294694363 0
    CHANNELS 3 Yrotation Xrotation Zrotation
    JOINT rightLowerLeg
    {
      OFFSET 0 -4.10147812638609 0
      CHANNELS 3 Yrotation Xrotation Zrotation
      JOINT rightFoot
      {
        OFFSET 0.0002543926476658853 -4.77292286812444 0.007402811231737388
        CHANNELS 3 Yrotation Xrotation Zrotation
        JOINT rightToes
        {
          OFFSET 0 -0.7027875951174846 1.2062924140498823
          CHANNELS 3 Yrotation Xrotation Zrotation
          End Site
          {
            OFFSET 0 -0.7027875951174846 1.2062924140498823
          }
        }
      }
    }
  }
}
MOTION
Frames: 4
Frame Time: 0.03333333333333333
1.5627686977386475 -1.628454657462509 -1.4893749952316284 148.17473673032117 19.27772324724917 8.77614172714759 1.9533997030944248 -8.764650250735732 -4.732265292708342 10.841172962410921 -25.699321087288553 -18.288952684262657 0 0 0 -0.9848422815276695 8.979669298709878 -4.069691251535156 -12.587095055662735 9.281545333286475 6.923750068473654 0 0 0 0 0 0 27.546312502277445 2.284142975935508 -2.476143060357959 37.16778746190792 -31.738612425459014 -53.46189959451991 -126.7189951576756 -5.335565736779603 13.52329038288673 -19.97804064272825 44.09156278060128 47.172412888702745 9.011246093101466 8.422764779294358 -60.887525025428396 4.70182302980105 3.0784014754727207 -66.41257559079688 4.6738411108999625 3.015564972044344 -65.64523192172372 21.282547239302342 18.62909291622394 -54.74722733541985 5.008909170109491 4.018278594230504 -77.46391762171947 4.9660849840397 3.8409909777278832 -75.42799439712093 7.781391973389162 7.322158386843082 -73.87310543430402 4.7783683831959465 3.263139389989322 -68.64392116622415 5.069519520265655 4.337463085509977 -81.09236852894239 7.835784005225444 9.818766132257245 -76.952111694786 4.367701532512223 2.4402633362869035 -58.37023429799532 4.73675757692844 3.1602517304398403 -67.40561967965355 9.158913378782376 2.9960109864612714 16.4418212751133 12.606439727709231 6.5640672223068695 3.9230485578109677 -5.786530503309457 -10.232472652664285 13.123710517892325 -14.872544501654767 0.43094382982894625 -2.012569095324343 -8.921949260668725 -12.494079144798063 53.33534181194633 125.7017412786526 -5.430798612082116 -13.414824531248858 41.27468930954669 48.078033263984004 -27.366589200603336 -3.2464018433814514 0.913263244327488 66.55185108151022 -3.362075311407214 1.8995945698825654 58.923992204831166 -3.509294104918291 2.1666628231720595 63.37279919590556 -24.387916324400976 2.4058323033777316 108.46301170138184 -3.8490501185511077 3.1522553229384 78.62606665439709 -3.8511969454160546 3.1630189673647298 78.78634771818218 -5.685940920874444 0.34625886782246257 73.82517643029335 -3.56946128743078 2.2920879112614143 65.40211234338493 -3.837626632931025 3.0977040847938664 77.81296684929434 -6.886624276003945 0.9265499949229584 93.76830701062497 -3.515010923343396 2.178077656251964 63.55909930855942 -3.687572215536878 2.5793313570897944 69.93344490474965 4.280304952344119 0.7331490868575566 -10.742301576065433 -22.055109835697163 10.25519431773426 -7.188233061887959 -21.383022900162498 4.0290088024855075 -22.18851762326893 -4.03840053979578 -41.26207841639244 -6.6577712899117545 11.38872506219489 62.44790113270646 10.16322873451432 -2.5016802553833455 -31.763259444514077 9.40091157201364 -0.0010922463213483785 -7.716540468988473 -1.1669593667532867 15.475469526026266 -44.35638076175665 -16.31827141633598 22.363543202334533 67.13929275501395 12.733156077943063 -2.0538540034656 -29.49618445369219 2.975137805759761 0.0000049529006240745145 -11.99541550974744 0.0000015957992097513665
1.3961251974105835 -1.5440258702310636 -1.5550220012664795 161.83156714801683 22.17486130155306 7.710096222358505 2.2370926993269333 -9.894252574114544 -2.9014825608488586 11.776552824510295 -28.9573241397883 -14.421993039803302 0 0 0 -2.1696768052150888 8.839876018680329 -7.117536269931572 -18.386695274609718 13.372074650026946 -10.184171280551455 0 0 0 0 0 0 27.219423305875395 2.1280957560197917 -2.4001177163070953 26.868849705636986 -27.881883705087603 -53.10496031656182 -127.37933955020591 -5.2727685874181365 13.592807115529451 -21.172401660233064 45.097622310085605 43.733188604632744 7.999650555936445 8.827716627062905 -73.6765311959541 4.71676312738019 3.112922320760646 -66.83242924263811 4.67597004003993 3.020236683726627 -65.70231642292025 17.70838952139652 17.556977555653717 -78.60819434303423 4.97381373770478 3.871028138563736 -75.77428508675038 4.916722952992199 3.664503310144241 -73.38246107057144 7.463585129923513 7.545391828511925 -81.15764802608096 4.799701965858556 3.3185749750794495 -69.30635994907043 5.079277678708678 4.402094228200679 -81.82222008950724 7.016926457174519 10.775429459894962 -86.10095200339863 4.515553551238436 2.696316455741149 -61.66948642403396 4.894086379460642 3.5907807909422735 -72.52184265810902 7.943559625258942 1.955976184008381 17.544761469920633 11.949465738061264 6.281765473124863 3.7850508233693043 -4.380780648181724 -9.259885633614948 13.632851399181636 -13.695834798776293 0.3375438181545319 -2.449486684902076 -45.12849911291951 -12.770500704915497 59.70209408402766 121.73817856381558 -5.782623844069554 -12.976774970873635 23.323341966375796 35.95046969034056 -50.37838688333859 -3.3568947349642 1.0927876636637253 71.73062724351391 -3.182074958225143 1.627326188699618 54.16191774792795 -3.3654052580787712 1.905151857285043 59.0187763326593 -24.932776972459543 2.496929870254884 110.89015132217604 -3.803340663315948 2.952619892005543 75.63739666117101 -3.8244769522282493 3.0390904520729713 76.93618407474736 -6.0377750687729534 0.3984464322308534 79.88557498300041 -3.4811080463679347 2.1115673397901484 62.47029685953632 -3.7860452761190797 2.8873822251419154 74.65286325084786 -6.582387801786433 2.9249363731201967 96.83213208431893 -3.4847179308742033 2.1184752325956566 62.58381222313138 -3.6488787335693442 2.4778360154108645 68.34904863285824 2.8944777152644483 1.657602876382279 -11.079131415549803 -16.12702316784213 7.320915403167493 -4.862734666599626 -22.12735502609937 4.2920382340627965 -22.75572235981461 -8.111086351996233 -44.87041559917971 -2.8226819018504647 -7.250586746862035 60.098122859015845 -4.669660298187289 -5.238955396086092 -32.80922455447326 13.240566622117342 -0.0030193177936883872 -2.9893525030931145 -0.30747219748173765 6.383850781366878 -45.10762801174811 -14.122022391113115 8.066871869448345 63.55365669921375 3.124920828776731 -3.0379652246354816 -30.906473639253974 6.060386790847042 -0.0003114216981749595 -8.544789478675161 -0.02470257338444798
1.2735700607299805 -1.3880839070352629 -1.4934557676315308 168.2863350211637 24.309692993528436 6.880502886910428 2.4522236152672026 -9.701547081816628 -1.3936118457206954 12.48546044028128 -30.144599986937962 -11.097359697577009 0 0 0 -2.0280208761976835 8.327612076518392 -7.42799611508638 -16.6759253111689 10.316208793588592 -13.276797795016796 0 0 0 0 0 0 27.84226588554364 1.8882654214691486 -1.7009526999593314 16.39672651033034 -24.492300536829706 -49.64384401748112 -121.88192283736122 -5.7703572881955925 12.993096870756473 -25.55829143789391 37.122081447870194 25.754581508433674 8.032759934848547 6.36435868198905 -64.65612244683557 4.338602122469904 2.393645309317322 -57.7576241392353 4.33838353686096 2.3932825659473878 -57.75278362363425 18.37328115313947 15.814738487688976 -89.58663083752337 4.961689334501694 3.8242460324015 -75.23455687800109 4.892349777489982 3.585351246534425 -72.4582145364911 7.567630883991787 6.180509473755988 -75.90016246397288 4.515457625995927 2.6961209385784786 -61.66692600121509 4.948042540372077 3.7736512222849914 -74.64969893952892 7.041074192150419 9.178267575745563 -87.79671773497587 4.434280122312122 2.551359739778099 -59.81533985119789 4.830579333816075 3.4023536379940023 -70.30263838127082 6.7364868240336415 -1.2474255573633926 21.13763182561774 8.298023717388503 4.016764976079572 2.488680389932014 -5.592750378489425 -10.16421331399323 13.44329240194078 -13.20973924183668 0.30304804855623885 -2.634166732050611 -45.13253124270319 -12.023681058023483 57.67630084538185 118.22499993213978 -6.0683317927371565 -12.569120814153083 18.150404619947384 29.96805956139463 -52.037804623415624 -3.741958921795148 1.2555578769751883 72.3994326683259 -3.055170904279066 1.4611589953118984 51.111797987656125 -3.2607384889429802 1.74031633653637 56.170369653790445 -25.791807460391496 2.761320937191298 114.53770454093106 -3.804153814560818 2.9557063299284403 75.68417704908809 -3.8353229432301523 3.0871116856007736 77.654768835312 -6.1204390083301945 0.5338023204355329 81.21215040254741 -3.416166397593035 1.9921133232202024 60.48681333067116 -3.7452222213481856 2.748928602434132 72.54710424430695 -6.565474730604406 3.1728511086572664 98.23626912309771 -3.4637238238037136 2.078623164914374 61.926696118062566 -3.6299181867224366 2.431035738619741 67.61263204042362 0.2991896456939068 3.016235045209236 -11.607083316527678 -11.381302880038488 4.744625210689837 -3.1936818831394387 -21.183437136005594 3.777905419030359 -22.42709468441334 -8.02021489352482 -47.761305464887606 -0.5933871301720374 -18.16468174386382 56.007803163410074 -13.98229282240943 -4.8953515062404955 -27.3047900442344 12.61536262695138 -0.004034188034087342 -4.795327567647527 -0.7411975565083716 2.5472128937651104 -45.88621196731551 -12.329297215695018 2.9191994797312413 59.796327011543 0.21414340449166894 -3.4537253892652746 -27.753815069295545 7.084104605230282 -0.000007082850463146743 -9.78318056944728 -0.000004366863122115066
1.211966633796692 -1.292322607901962 -1.4358607530593872 171.60765710866795 24.78263493160352 6.518521284973803 2.4067571370740066 -9.066664529423717 -0.6991430909059458 11.987417340779555 -29.599352378827064 -8.905309359600908 0 0 0 -1.7249520014527038 7.598152337486493 -7.022526743125342 -14.307177385518115 7.21383720976427 -12.427912440373355 0 0 0 0 0 0 27.72744845840653 1.4398017275102275 -0.5905642070105446 12.552609004903317 -21.93385515227569 -48.92141323499214 -119.38549381106981 -5.9766826240658215 12.7057307497605 -23.154571859556757 33.66120586447703 18.55192437693311 7.940573365358276 5.116921320297113 -56.4445714060972 4.016868111977259 1.9403210929351458 -51.55295747408762 4.058386750642605 1.9933125331892976 -52.30410803485371 19.63489421285961 14.695327756671343 -91.33097742371453 4.9578594410220065 3.809794164322955 -75.06785162384824 4.884437489444804 3.560561554992134 -72.16786260651683 7.527527247335586 5.172425486593719 -70.91626488038018 4.249311686740476 2.257047685977353 -55.93713587759033 4.79840300975251 3.3151400391510992 -69.26561875103566 7.234723414040368 7.724484271245888 -86.80105452069898 4.313516537024284 2.3542854333138203 -57.23688393089808 4.725335193436409 3.1329869842322213 -67.07582628099013 6.79016128643275 -3.250476899293486 23.432314635376912 4.637296047422319 1.6966069452339108 1.346051582217547 -7.384846218431037 -11.467020561434211 13.10780935532871 -12.59111988105048 0.4068032682977804 -2.1655469855250473 -42.42492682874945 -13.07997365983326 55.43137025886549 117.0467386958599 -6.158434088851763 -12.428614887196316 16.953679149226858 26.51345957844962 -51.62319724318313 -4.05981016610733 1.3658364596365344 72.04373106831808 -2.998103302981565 1.3920933348150946 49.80555856611684 -3.2131085536744237 1.6708856200485604 54.94226028874483 -25.99689651945732 2.8152190185598407 115.323003922844 -3.8017734868558883 2.9464521713002094 75.54466700057814 -3.8370262237175874 3.094846815622944 77.7704104841173 -6.108021686219853 0.6716323114161393 80.95435274017922 -3.3828793353414115 1.9345159556124627 59.516940800039 -3.723438776374635 2.681767072990864 71.5167272841883 -6.581649194142121 3.115125535261735 98.21775162251282 -3.44527818684245 2.044427461243949 61.36012595614831 -3.615956863071059 2.397602380009063 67.08424599883817 -1.2274877502994743 3.799557482223003 -11.898382094175329 -9.020311573164115 3.4066052500855166 -2.442833206564027 -20.376466137475724 3.3561473200396126 -22.096824200260176 -7.460199354789137 -49.221378029843684 0.24806094170305154 -17.450702552530903 54.574674769264256 -13.818249973216417 -5.466385726810193 -22.49286930383645 10.087537333079936 -0.004130902134319979 -7.617746464034863 -0.5917542037872391 0.5844229735249533 -45.71946673842392 -11.371972451005098 0.9372173212617817 57.80045806607764 -0.5820711202028785 -3.55179237841323 -25.49180232404916 7.33246346436266 0.000009917303546468202 -10.956226013812554 0.0000011810506793075038
